<svg width="55" height="55" viewBox="0 0 55 55" fill="none" xmlns="http://www.w3.org/2000/svg">
<path d="M0 27.5C0 42.6878 12.3122 55 27.5 55C42.6878 55 55 42.6878 55 27.5C55 12.3122 42.6878 0 27.5 0C12.3122 0 0 12.3122 0 27.5Z" fill="#F5F5F7"/>
<path d="M27.5 48.125C38.8909 48.125 48.125 38.8909 48.125 27.5C48.125 16.1091 38.8909 6.875 27.5 6.875C16.1091 6.875 6.875 16.1091 6.875 27.5C6.875 38.8909 16.1091 48.125 27.5 48.125Z" fill="#F5F5F7"/>
<path d="M24.9219 19.7656L33.5156 27.5L24.9219 35.2344" fill="#F5F5F7"/>
<path d="M24.9219 19.7656L33.5156 27.5L24.9219 35.2344" stroke="black" stroke-linecap="round" stroke-linejoin="round"/>
</svg>
