<svg width="34" height="34" viewBox="0 0 34 34" fill="none" xmlns="http://www.w3.org/2000/svg">
<path d="M17 29.75C24.0416 29.75 29.75 24.0416 29.75 17C29.75 9.95837 24.0416 4.25 17 4.25C9.95837 4.25 4.25 9.95837 4.25 17C4.25 24.0416 9.95837 29.75 17 29.75Z" stroke="#828282" stroke-width="1.5" stroke-miterlimit="10"/>
<path d="M17 21.25C19.934 21.25 22.3125 18.8715 22.3125 15.9375C22.3125 13.0035 19.934 10.625 17 10.625C14.066 10.625 11.6875 13.0035 11.6875 15.9375C11.6875 18.8715 14.066 21.25 17 21.25Z" stroke="#828282" stroke-width="1.5" stroke-miterlimit="10"/>
<path d="M8.47314 26.4794C9.27349 24.9058 10.4936 23.5844 11.9986 22.6615C13.5035 21.7385 15.2344 21.25 16.9998 21.25C18.7652 21.25 20.4962 21.7385 22.0011 22.6615C23.506 23.5844 24.7262 24.9058 25.5265 26.4793" stroke="#828282" stroke-width="1.5" stroke-linecap="round" stroke-linejoin="round"/>
</svg>
