<svg width="19" height="19" viewBox="0 0 19 19" fill="none" xmlns="http://www.w3.org/2000/svg">
<g clip-path="url(#clip0_5_3624)">
<path d="M2.47998 4.82007H4.03998H16.52" stroke="black" stroke-width="2" stroke-linecap="round" stroke-linejoin="round"/>
<path d="M14.96 4.82007V15.7401C14.96 16.1538 14.7957 16.5506 14.5031 16.8432C14.2106 17.1357 13.8138 17.3001 13.4 17.3001H5.60004C5.1863 17.3001 4.78951 17.1357 4.49695 16.8432C4.2044 16.5506 4.04004 16.1538 4.04004 15.7401V4.82007M6.38004 4.82007V3.26007C6.38004 2.84634 6.5444 2.44954 6.83695 2.15699C7.12951 1.86443 7.5263 1.70007 7.94004 1.70007H11.06C11.4738 1.70007 11.8706 1.86443 12.1631 2.15699C12.4557 2.44954 12.62 2.84634 12.62 3.26007V4.82007" stroke="black" stroke-width="2" stroke-linecap="round" stroke-linejoin="round"/>
</g>
<defs>
<clipPath id="clip0_5_3624">
<rect width="18.72" height="18.72" fill="white" transform="translate(0.140137 0.140015)"/>
</clipPath>
</defs>
</svg>
