<svg width="19" height="19" viewBox="0 0 19 19" fill="none" xmlns="http://www.w3.org/2000/svg">
<g clip-path="url(#clip0_5_3619)">
<path d="M2.47998 4.81982H4.03998H16.52" stroke="black" stroke-width="2" stroke-linecap="round" stroke-linejoin="round"/>
<path d="M14.96 4.81995V15.74C14.96 16.1537 14.7957 16.5505 14.5031 16.843C14.2106 17.1356 13.8138 17.3 13.4 17.3H5.60004C5.1863 17.3 4.78951 17.1356 4.49695 16.843C4.2044 16.5505 4.04004 16.1537 4.04004 15.74V4.81995M6.38004 4.81995V3.25995C6.38004 2.84621 6.5444 2.44942 6.83695 2.15686C7.12951 1.86431 7.5263 1.69995 7.94004 1.69995H11.06C11.4738 1.69995 11.8706 1.86431 12.1631 2.15686C12.4557 2.44942 12.62 2.84621 12.62 3.25995V4.81995" stroke="black" stroke-width="2" stroke-linecap="round" stroke-linejoin="round"/>
</g>
<defs>
<clipPath id="clip0_5_3619">
<rect width="18.72" height="18.72" fill="white" transform="translate(0.140137 0.139893)"/>
</clipPath>
</defs>
</svg>
